<svg xmlns="http://www.w3.org/2000/svg" viewBox="0 0 1200 800" role="img" aria-labelledby="title desc">
  <title id="title">제주 선박화물 일러스트</title>
  <desc id="desc">컨테이너를 실은 화물선이 제주 방향 바다를 운항하는 모습</desc>
  <defs>
    <linearGradient id="sky" x1="0" y1="0" x2="0" y2="1">
      <stop offset="0" stop-color="#ddecff"/>
      <stop offset="1" stop-color="#f4f8ff"/>
    </linearGradient>
    <linearGradient id="sea" x1="0" y1="0" x2="1" y2="1">
      <stop offset="0" stop-color="#1b4dff"/>
      <stop offset="1" stop-color="#0c2d64"/>
    </linearGradient>
  </defs>
  <rect width="1200" height="800" fill="url(#sky)"/>
  <circle cx="956" cy="154" r="86" fill="#ffce3a"/>
  <path d="M0 500c180-58 310 42 478 8 189-38 295-87 472-22 91 33 170 13 250-10v324H0z" fill="url(#sea)"/>
  <path d="M0 585c173-44 294 35 457 10 180-28 327-65 499-9 90 29 168 13 244-7" fill="none" stroke="#78a0ff" stroke-width="18" opacity=".55"/>
  <g transform="translate(202 250)">
    <path d="M65 240h720l-75 160H182c-58 0-104-27-133-73L0 250z" fill="#10243e"/>
    <path d="M525 98h125v142H525z" fill="#fff"/>
    <path d="M548 124h37v46h-37zM597 124h37v46h-37z" fill="#8fb5e9"/>
    <path d="M604 52h22v46h-22z" fill="#10243e"/>
    <g>
      <path d="M110 130h132v110H110z" fill="#ffce3a"/>
      <path d="M250 130h132v110H250z" fill="#1b4dff"/>
      <path d="M390 130h127v110H390z" fill="#f26b3a"/>
      <path d="M180 12h132v110H180z" fill="#f26b3a"/>
      <path d="M320 12h132v110H320z" fill="#ffce3a"/>
      <path d="M118 157h116M258 157h116M398 157h110M188 39h116M328 39h116" stroke="#fff" stroke-width="8" opacity=".55"/>
    </g>
    <path d="M660 190h88l37 50H650z" fill="#fff"/>
  </g>
  <path d="M820 226c34-28 65-28 98 0M894 202c28-22 54-22 81 0" fill="none" stroke="#6686ac" stroke-width="8" stroke-linecap="round"/>
</svg>
